<svg width="100" height="100" viewBox="0 0 100 100" fill="none" xmlns="http://www.w3.org/2000/svg">
<rect width="100" height="100" rx="50" fill="#7926FF"/>
<path d="M48.4622 78.7427L48.4431 78.7325L48.3769 78.6971C48.3205 78.6668 48.2399 78.6231 48.1366 78.5662C47.9301 78.4523 47.6328 78.2855 47.2579 78.0675C46.5082 77.6316 45.4462 76.9898 44.1758 76.1551C41.6391 74.4885 38.2497 72.0387 34.8513 68.9078C28.1259 62.7117 21 53.5062 21 42.1669C21 33.7079 28.2013 27 36.8942 27C42.0063 27 46.5837 29.3085 49.5 32.9269C52.4163 29.3085 56.9937 27 62.1058 27C70.7987 27 78 33.7079 78 42.1669C78 53.5062 70.8741 62.7117 64.1487 68.9078C60.7503 72.0387 57.3609 74.4885 54.8242 76.1551C53.5538 76.9898 52.4918 77.6316 51.7421 78.0675C51.3672 78.2855 51.0699 78.4523 50.8634 78.5662C50.7601 78.6231 50.6795 78.6668 50.6231 78.6971L50.5569 78.7325L50.5378 78.7427L50.5297 78.7469C49.8867 79.0844 49.1133 79.0844 48.4703 78.7469L48.4622 78.7427Z" fill="white"/>
</svg>
