
<svg aria-roledescription="gantt" role="graphics-document document" style="max-width: 3840px; background-color: white; max-height: 3840px;" viewBox="0 0 784 1372" xmlns:xlink="http://www.w3.org/1999/xlink" xmlns="http://www.w3.org/2000/svg" width="100%" id="my-svg"><style>#my-svg{font-family:"trebuchet ms",verdana,arial,sans-serif;font-size:14px;fill:#333;}#my-svg .error-icon{fill:#ffffff;}#my-svg .error-text{fill:#000000;stroke:#000000;}#my-svg .edge-thickness-normal{stroke-width:1px;}#my-svg .edge-thickness-thick{stroke-width:3.5px;}#my-svg .edge-pattern-solid{stroke-dasharray:0;}#my-svg .edge-thickness-invisible{stroke-width:0;fill:none;}#my-svg .edge-pattern-dashed{stroke-dasharray:3;}#my-svg .edge-pattern-dotted{stroke-dasharray:2;}#my-svg .marker{fill:#000000;stroke:#000000;}#my-svg .marker.cross{stroke:#000000;}#my-svg svg{font-family:"trebuchet ms",verdana,arial,sans-serif;font-size:14px;}#my-svg p{margin:0;}#my-svg .mermaid-main-font{font-family:var(--mermaid-font-family, "trebuchet ms", verdana, arial, sans-serif);}#my-svg .exclude-range{fill:#eeeeee;}#my-svg .section{stroke:none;opacity:0.2;}#my-svg .section0{fill:hsl(60, 90%, 100%);}#my-svg .section2{fill:#ECECFE;}#my-svg .section1,#my-svg .section3{fill:white;opacity:0.2;}#my-svg .sectionTitle0{fill:#000000;}#my-svg .sectionTitle1{fill:#000000;}#my-svg .sectionTitle2{fill:#000000;}#my-svg .sectionTitle3{fill:#000000;}#my-svg .sectionTitle{text-anchor:start;font-family:var(--mermaid-font-family, "trebuchet ms", verdana, arial, sans-serif);}#my-svg .grid .tick{stroke:lightgrey;opacity:0.8;shape-rendering:crispEdges;}#my-svg .grid .tick text{font-family:"trebuchet ms",verdana,arial,sans-serif;fill:#333;}#my-svg .grid path{stroke-width:0;}#my-svg .today{fill:none;stroke:red;stroke-width:2px;}#my-svg .task{stroke-width:2;}#my-svg .taskText{text-anchor:middle;font-family:var(--mermaid-font-family, "trebuchet ms", verdana, arial, sans-serif);}#my-svg .taskTextOutsideRight{fill:#333;text-anchor:start;font-family:var(--mermaid-font-family, "trebuchet ms", verdana, arial, sans-serif);}#my-svg .taskTextOutsideLeft{fill:#333;text-anchor:end;}#my-svg .task.clickable{cursor:pointer;}#my-svg .taskText.clickable{cursor:pointer;fill:#003163!important;font-weight:bold;}#my-svg .taskTextOutsideLeft.clickable{cursor:pointer;fill:#003163!important;font-weight:bold;}#my-svg .taskTextOutsideRight.clickable{cursor:pointer;fill:#003163!important;font-weight:bold;}#my-svg .taskText0,#my-svg .taskText1,#my-svg .taskText2,#my-svg .taskText3{fill:#333;}#my-svg .task0,#my-svg .task1,#my-svg .task2,#my-svg .task3{fill:#ECECFE;stroke:hsl(0, 0%, 70%);}#my-svg .taskTextOutside0,#my-svg .taskTextOutside2{fill:#333;}#my-svg .taskTextOutside1,#my-svg .taskTextOutside3{fill:#333;}#my-svg .active0,#my-svg .active1,#my-svg .active2,#my-svg .active3{fill:hsl(240, 90%, 100%);stroke:#ECECFE;}#my-svg .activeText0,#my-svg .activeText1,#my-svg .activeText2,#my-svg .activeText3{fill:#333!important;}#my-svg .done0,#my-svg .done1,#my-svg .done2,#my-svg .done3{stroke:grey;fill:lightgrey;stroke-width:2;}#my-svg .doneText0,#my-svg .doneText1,#my-svg .doneText2,#my-svg .doneText3{fill:#333!important;}#my-svg .crit0,#my-svg .crit1,#my-svg .crit2,#my-svg .crit3{stroke:#ff8888;fill:red;stroke-width:2;}#my-svg .activeCrit0,#my-svg .activeCrit1,#my-svg .activeCrit2,#my-svg .activeCrit3{stroke:#ff8888;fill:hsl(240, 90%, 100%);stroke-width:2;}#my-svg .doneCrit0,#my-svg .doneCrit1,#my-svg .doneCrit2,#my-svg .doneCrit3{stroke:#ff8888;fill:lightgrey;stroke-width:2;cursor:pointer;shape-rendering:crispEdges;}#my-svg .milestone{transform:rotate(45deg) scale(0.8,0.8);}#my-svg .milestoneText{font-style:italic;}#my-svg .doneCritText0,#my-svg .doneCritText1,#my-svg .doneCritText2,#my-svg .doneCritText3{fill:#333!important;}#my-svg .activeCritText0,#my-svg .activeCritText1,#my-svg .activeCritText2,#my-svg .activeCritText3{fill:#333!important;}#my-svg .titleText{text-anchor:middle;font-size:18px;fill:#000000;font-family:var(--mermaid-font-family, "trebuchet ms", verdana, arial, sans-serif);}#my-svg .node .neo-node{stroke:#000000;}#my-svg [data-look="neo"].node rect,#my-svg [data-look="neo"].cluster rect,#my-svg [data-look="neo"].node polygon{stroke:url(#my-svg-gradient);filter:drop-shadow( 0px 1px 2px rgba(0, 0, 0, 0.25));}#my-svg [data-look="neo"].node rect,#my-svg [data-look="neo"].node polygon,#my-svg [data-look="neo"].node path{stroke:url(#my-svg-gradient);filter:drop-shadow( 0px 1px 2px rgba(0, 0, 0, 0.25));}#my-svg [data-look="neo"].node .neo-line path{stroke:hsl(0, 0%, 70%);filter:none;}#my-svg [data-look="neo"].node circle{stroke:url(#my-svg-gradient);filter:drop-shadow( 0px 1px 2px rgba(0, 0, 0, 0.25));}#my-svg [data-look="neo"].node circle .state-start{fill:#000000;}#my-svg [data-look="neo"].statediagram-cluster rect{fill:#ffffff;stroke:url(#my-svg-gradient);stroke-width:1px;}#my-svg [data-look="neo"].icon-shape .icon{fill:url(#my-svg-gradient);filter:drop-shadow( 0px 1px 2px rgba(0, 0, 0, 0.25));}#my-svg [data-look="neo"].icon-shape .icon-neo path{stroke:url(#my-svg-gradient);filter:drop-shadow( 0px 1px 2px rgba(0, 0, 0, 0.25));}#my-svg :root{--mermaid-font-family:"trebuchet ms",verdana,arial,sans-serif;}</style><g/><g text-anchor="middle" font-family="sans-serif" font-size="10" fill="none" transform="translate(75, 1322)" class="grid"><path d="M0.5,-1287V0.5H634.5V-1287" stroke="currentColor" class="domain"/><g transform="translate(32.5,0)" opacity="1" class="tick"><line y2="-1287" stroke="currentColor"/><text style="text-anchor: middle;" font-size="10" stroke="none" dy="1em" y="3" fill="#000">2024-09-15</text></g><g transform="translate(143.5,0)" opacity="1" class="tick"><line y2="-1287" stroke="currentColor"/><text style="text-anchor: middle;" font-size="10" stroke="none" dy="1em" y="3" fill="#000">2024-09-22</text></g><g transform="translate(254.5,0)" opacity="1" class="tick"><line y2="-1287" stroke="currentColor"/><text style="text-anchor: middle;" font-size="10" stroke="none" dy="1em" y="3" fill="#000">2024-09-29</text></g><g transform="translate(365.5,0)" opacity="1" class="tick"><line y2="-1287" stroke="currentColor"/><text style="text-anchor: middle;" font-size="10" stroke="none" dy="1em" y="3" fill="#000">2024-10-06</text></g><g transform="translate(476.5,0)" opacity="1" class="tick"><line y2="-1287" stroke="currentColor"/><text style="text-anchor: middle;" font-size="10" stroke="none" dy="1em" y="3" fill="#000">2024-10-13</text></g><g transform="translate(586.5,0)" opacity="1" class="tick"><line y2="-1287" stroke="currentColor"/><text style="text-anchor: middle;" font-size="10" stroke="none" dy="1em" y="3" fill="#000">2024-10-20</text></g></g><g><rect class="section section0" height="24" width="746.5" y="48" x="0"/><rect class="section section0" height="24" width="746.5" y="72" x="0"/><rect class="section section0" height="24" width="746.5" y="96" x="0"/><rect class="section section0" height="24" width="746.5" y="120" x="0"/><rect class="section section1" height="24" width="746.5" y="144" x="0"/><rect class="section section1" height="24" width="746.5" y="168" x="0"/><rect class="section section1" height="24" width="746.5" y="192" x="0"/><rect class="section section1" height="24" width="746.5" y="216" x="0"/><rect class="section section1" height="24" width="746.5" y="240" x="0"/><rect class="section section1" height="24" width="746.5" y="264" x="0"/><rect class="section section2" height="24" width="746.5" y="288" x="0"/><rect class="section section2" height="24" width="746.5" y="312" x="0"/><rect class="section section2" height="24" width="746.5" y="336" x="0"/><rect class="section section2" height="24" width="746.5" y="360" x="0"/><rect class="section section2" height="24" width="746.5" y="384" x="0"/><rect class="section section2" height="24" width="746.5" y="408" x="0"/><rect class="section section2" height="24" width="746.5" y="432" x="0"/><rect class="section section3" height="24" width="746.5" y="456" x="0"/><rect class="section section3" height="24" width="746.5" y="480" x="0"/><rect class="section section3" height="24" width="746.5" y="624" x="0"/><rect class="section section3" height="24" width="746.5" y="648" x="0"/><rect class="section section3" height="24" width="746.5" y="960" x="0"/><rect class="section section3" height="24" width="746.5" y="504" x="0"/><rect class="section section3" height="24" width="746.5" y="984" x="0"/><rect class="section section3" height="24" width="746.5" y="672" x="0"/><rect class="section section3" height="24" width="746.5" y="528" x="0"/><rect class="section section3" height="24" width="746.5" y="552" x="0"/><rect class="section section3" height="24" width="746.5" y="696" x="0"/><rect class="section section3" height="24" width="746.5" y="720" x="0"/><rect class="section section3" height="24" width="746.5" y="1008" x="0"/><rect class="section section3" height="24" width="746.5" y="1032" x="0"/><rect class="section section3" height="24" width="746.5" y="744" x="0"/><rect class="section section3" height="24" width="746.5" y="1056" x="0"/><rect class="section section3" height="24" width="746.5" y="576" x="0"/><rect class="section section3" height="24" width="746.5" y="768" x="0"/><rect class="section section3" height="24" width="746.5" y="792" x="0"/><rect class="section section3" height="24" width="746.5" y="816" x="0"/><rect class="section section3" height="24" width="746.5" y="840" x="0"/><rect class="section section3" height="24" width="746.5" y="1080" x="0"/><rect class="section section3" height="24" width="746.5" y="864" x="0"/><rect class="section section3" height="24" width="746.5" y="600" x="0"/><rect class="section section3" height="24" width="746.5" y="888" x="0"/><rect class="section section3" height="24" width="746.5" y="1104" x="0"/><rect class="section section0" height="24" width="746.5" y="1152" x="0"/><rect class="section section3" height="24" width="746.5" y="912" x="0"/><rect class="section section0" height="24" width="746.5" y="1128" x="0"/><rect class="section section0" height="24" width="746.5" y="1176" x="0"/><rect class="section section1" height="24" width="746.5" y="1200" x="0"/><rect class="section section3" height="24" width="746.5" y="936" x="0"/><rect class="section section1" height="24" width="746.5" y="1224" x="0"/><rect class="section section1" height="24" width="746.5" y="1248" x="0"/><rect class="section section1" height="24" width="746.5" y="1272" x="0"/><rect class="section section1" height="24" width="746.5" y="1296" x="0"/></g><g><rect class="task done0" transform-origin="83px 60px" height="20" width="16" y="50" x="75" ry="3" rx="3" id="task1"/><rect class="task done0" transform-origin="178px 84px" height="20" width="16" y="74" x="170" ry="3" rx="3" id="task2"/><rect class="task done0" transform-origin="210px 108px" height="20" width="48" y="98" x="186" ry="3" rx="3" id="task3"/><rect class="task done0" transform-origin="241.5px 132px" height="20" width="15" y="122" x="234" ry="3" rx="3" id="task4"/><rect class="task done1" transform-origin="241.5px 156px" height="20" width="15" y="146" x="234" ry="3" rx="3" id="task5"/><rect class="task done1" transform-origin="241.5px 180px" height="20" width="15" y="170" x="234" ry="3" rx="3" id="task6"/><rect class="task done1" transform-origin="241.5px 204px" height="20" width="15" y="194" x="234" ry="3" rx="3" id="task7"/><rect class="task done1" transform-origin="241.5px 228px" height="20" width="15" y="218" x="234" ry="3" rx="3" id="task8"/><rect class="task done1" transform-origin="241.5px 252px" height="20" width="15" y="242" x="234" ry="3" rx="3" id="task9"/><rect class="task done1" transform-origin="257px 276px" height="20" width="16" y="266" x="249" ry="3" rx="3" id="task10"/><rect class="task done2" transform-origin="273px 300px" height="20" width="16" y="290" x="265" ry="3" rx="3" id="task11"/><rect class="task done2" transform-origin="273px 324px" height="20" width="16" y="314" x="265" ry="3" rx="3" id="task12"/><rect class="task done2" transform-origin="281px 348px" height="20" width="32" y="338" x="265" ry="3" rx="3" id="task13"/><rect class="task done2" transform-origin="281px 372px" height="20" width="32" y="362" x="265" ry="3" rx="3" id="task14"/><rect class="task done2" transform-origin="289px 396px" height="20" width="16" y="386" x="281" ry="3" rx="3" id="task15"/><rect class="task done2" transform-origin="289px 420px" height="20" width="16" y="410" x="281" ry="3" rx="3" id="task16"/><rect class="task done2" transform-origin="305px 444px" height="20" width="16" y="434" x="297" ry="3" rx="3" id="task17"/><rect class="task done3" transform-origin="368px 468px" height="20" width="48" y="458" x="344" ry="3" rx="3" id="task18"/><rect class="task done3" transform-origin="416px 492px" height="20" width="16" y="482" x="408" ry="3" rx="3" id="task19"/><rect class="task active3" transform-origin="439.5px 636px" height="20" width="63" y="626" x="408" ry="3" rx="3" id="task25"/><rect class="task task3" transform-origin="439.5px 660px" height="20" width="63" y="650" x="408" ry="3" rx="3" id="task26"/><rect class="task done3" transform-origin="416px 972px" height="20" width="16" y="962" x="408" ry="3" rx="3" id="task39"/><rect class="task done3" transform-origin="471px 516px" height="20" width="32" y="506" x="455" ry="3" rx="3" id="task20"/><rect class="task done3" transform-origin="471px 996px" height="20" width="32" y="986" x="455" ry="3" rx="3" id="task40"/><rect class="task done3" transform-origin="479px 684px" height="20" width="16" y="674" x="471" ry="3" rx="3" id="task27"/><rect class="task done3" transform-origin="519px 540px" height="20" width="32" y="530" x="503" ry="3" rx="3" id="task21"/><rect class="task done3" transform-origin="542.5px 564px" height="20" width="79" y="554" x="503" ry="3" rx="3" id="task22"/><rect class="task done3" transform-origin="511px 708px" height="20" width="16" y="698" x="503" ry="3" rx="3" id="task28"/><rect class="task done3" transform-origin="519px 732px" height="20" width="32" y="722" x="503" ry="3" rx="3" id="task29"/><rect class="task done3" transform-origin="527px 1020px" height="20" width="48" y="1010" x="503" ry="3" rx="3" id="task41"/><rect class="task done3" transform-origin="527px 1044px" height="20" width="16" y="1034" x="519" ry="3" rx="3" id="task42"/><rect class="task done3" transform-origin="574px 756px" height="20" width="16" y="746" x="566" ry="3" rx="3" id="task30"/><rect class="task done3" transform-origin="582px 1068px" height="20" width="32" y="1058" x="566" ry="3" rx="3" id="task43"/><rect class="task done3" transform-origin="606px 588px" height="20" width="48" y="578" x="582" ry="3" rx="3" id="task23"/><rect class="task done3" transform-origin="590px 780px" height="20" width="16" y="770" x="582" ry="3" rx="3" id="task31"/><rect class="task done3" transform-origin="590px 804px" height="20" width="16" y="794" x="582" ry="3" rx="3" id="task32"/><rect class="task done3" transform-origin="590px 828px" height="20" width="16" y="818" x="582" ry="3" rx="3" id="task33"/><rect class="task done3" transform-origin="590px 852px" height="20" width="16" y="842" x="582" ry="3" rx="3" id="task34"/><rect class="task done3" transform-origin="614px 1092px" height="20" width="64" y="1082" x="582" ry="3" rx="3" id="task44"/><rect class="task done3" transform-origin="622px 876px" height="20" width="16" y="866" x="614" ry="3" rx="3" id="task35"/><rect class="task done3" transform-origin="638px 612px" height="20" width="16" y="602" x="630" ry="3" rx="3" id="task24"/><rect class="task done3" transform-origin="638px 900px" height="20" width="16" y="890" x="630" ry="3" rx="3" id="task36"/><rect class="task done3" transform-origin="645.5px 1116px" height="20" width="31" y="1106" x="630" ry="3" rx="3" id="task45"/><rect class="task done0" transform-origin="638px 1164px" height="20" width="16" y="1154" x="630" ry="3" rx="3" id="task47"/><rect class="task done3" transform-origin="653.5px 924px" height="20" width="15" y="914" x="646" ry="3" rx="3" id="task37"/><rect class="task done0" transform-origin="661.5px 1140px" height="20" width="31" y="1130" x="646" ry="3" rx="3" id="task46"/><rect class="task done0" transform-origin="653.5px 1188px" height="20" width="15" y="1178" x="646" ry="3" rx="3" id="task48"/><rect class="task done1" transform-origin="661.5px 1212px" height="20" width="31" y="1202" x="646" ry="3" rx="3" id="task49"/><rect class="task done3" transform-origin="669px 948px" height="20" width="16" y="938" x="661" ry="3" rx="3" id="task38"/><rect class="task active1" transform-origin="677px 1236px" height="20" width="32" y="1226" x="661" ry="3" rx="3" id="task50"/><rect class="task done1" transform-origin="669px 1260px" height="20" width="16" y="1250" x="661" ry="3" rx="3" id="task51"/><rect class="task done1" transform-origin="685px 1284px" height="20" width="16" y="1274" x="677" ry="3" rx="3" id="task52"/><rect class="task task1" transform-origin="701px 1308px" height="20" width="16" y="1298" x="693" ry="3" rx="3" id="task53"/><text class="taskTextOutsideRight taskTextOutside0  doneText0 width-63.78125" y="63.5" x="96" font-size="11" id="task1-text">사용기술 논의          </text><text class="taskTextOutsideRight taskTextOutside0  doneText0 width-87.078125" y="87.5" x="191" font-size="11" id="task2-text">프로젝트 주제 논의     </text><text class="taskTextOutsideRight taskTextOutside0  doneText0 width-88.625" y="111.5" x="239" font-size="11" id="task3-text">API, 구현기술 조사     </text><text class="taskTextOutsideRight taskTextOutside0  doneText0 width-76.953125" y="135.5" x="254" font-size="11" id="task4-text">서비스 주제 선정       </text><text class="taskTextOutsideRight taskTextOutside1  doneText1 width-87.953125" y="159.5" x="254" font-size="11" id="task5-text">메인페이지 UI 기획     </text><text class="taskTextOutsideRight taskTextOutside1  doneText1 width-117.96875" y="183.5" x="254" font-size="11" id="task6-text">마이페이지 UI 기획 - 다온 </text><text class="taskTextOutsideRight taskTextOutside1  doneText1 width-214.21875" y="207.5" x="254" font-size="11" id="task7-text">검색, 검색결과, 로그인/회원가입 UI 기획 - 재은 </text><text class="taskTextOutsideRight taskTextOutside1  doneText1 width-154.453125" y="231.5" x="254" font-size="11" id="task8-text">후기상세, 후기작성 UI 기획 - 민서 </text><text class="taskTextOutsideRight taskTextOutside1  doneText1 width-164.5625" y="255.5" x="254" font-size="11" id="task9-text">공연리스트, 공연상세 UI 기획 - 다영 </text><text class="taskTextOutsideRight taskTextOutside1  doneText1 width-80.890625" y="279.5" x="270" font-size="11" id="task10-text">UI 기획 전체 리뷰      </text><text class="taskTextOutsideRight taskTextOutside2  doneText2 width-155.890625" y="303.5" x="286" font-size="11" id="task11-text">Firebase 세팅, 리덕스 세팅 - 민서     </text><text class="taskTextOutsideRight taskTextOutside2  doneText2 width-113.015625" y="327.5" x="286" font-size="11" id="task12-text">CRA, 포매터 설정 - 다온 </text><text class="taskTextOutsideRight taskTextOutside2  doneText2 width-100.796875" y="351.5" x="302" font-size="11" id="task13-text">UI 디자인 - 재은, 다영 </text><text class="taskTextOutsideRight taskTextOutside2  doneText2 width-177.75" y="375.5" x="302" font-size="11" id="task14-text">디자인 시스템, 컴포넌트 UI 정리 - 다영 </text><text class="taskTextOutsideRight taskTextOutside2  doneText2 width-53.65625" y="399.5" x="302" font-size="11" id="task15-text">컨벤션 정리            </text><text class="taskTextOutsideRight taskTextOutside2  doneText2 width-87.078125" y="423.5" x="302" font-size="11" id="task16-text">스타일링 도구 선정      </text><text class="taskTextOutsideRight taskTextOutside2  doneText2 width-96.796875" y="447.5" x="318" font-size="11" id="task17-text">SCSS 스타일링 세팅     </text><text class="taskTextOutsideRight taskTextOutside3  doneText3 width-101.140625" y="471.5" x="397" font-size="11" id="task18-text">공통 컴포넌트 UI 개발   </text><text class="taskTextOutsideRight taskTextOutside3  doneText3 width-117.09375" y="495.5" x="429" font-size="11" id="task19-text">로그인 페이지 개발 - 민서 </text><text class="taskTextOutsideRight taskTextOutside3 activeText3 width-127.21875" y="639.5" x="476" font-size="11" id="task25-text">후기상세 페이지 개발 - 재은 </text><text class="taskTextOutsideRight taskTextOutside3  width-127.21875" y="663.5" x="476" font-size="11" id="task26-text">후기작성 페이지 개발 - 재은 </text><text class="taskTextOutsideRight taskTextOutside3  doneText3 width-93.734375" y="975.5" x="429" font-size="11" id="task39-text">프로필 UI 1차 - 다영 </text><text class="taskTextOutsideRight taskTextOutside3  doneText3 width-127.21875" y="519.5" x="492" font-size="11" id="task20-text">회원가입 페이지 개발 - 민서 </text><text class="taskTextOutsideRight taskTextOutside3  doneText3 width-93.734375" y="999.5" x="492" font-size="11" id="task40-text">프로필 UI 2차 - 다영 </text><text class="taskTextOutsideRight taskTextOutside3  doneText3 width-143.453125" y="687.5" x="492" font-size="11" id="task27-text">공연 목록 출력 기능 추가 - 다온              </text><text class="taskTextOutsideRight taskTextOutside3  doneText3 width-133.59375" y="543.5" x="540" font-size="11" id="task21-text">메인 페이지 개발 (1차) - 민서 </text><text class="taskTextOutsideRight taskTextOutside3  doneText3 width-127.21875" y="567.5" x="587" font-size="11" id="task22-text">공연상세 페이지 개발 - 민서 </text><text class="taskTextOutsideRight taskTextOutside3  doneText3 width-210.28125" y="711.5" x="524" font-size="11" id="task28-text">공연 목록 페이지 무한 스크롤 기능 추가 - 다온  </text><text class="taskTextOutsideLeft taskTextOutside3  doneText3" y="735.5" x="498" font-size="11" id="task29-text">공연 목록 정렬 (최신순, 북마크순 등) 기능 - 다온 </text><text class="taskTextOutsideRight taskTextOutside3  doneText3 width-83.609375" y="1023.5" x="556" font-size="11" id="task41-text">설정 UI 1차 - 다영 </text><text class="taskTextOutsideRight taskTextOutside3  doneText3 width-102.96875" y="1047.5" x="540" font-size="11" id="task42-text">프로필 기능 1차 - 다영 </text><text class="taskTextOutsideLeft taskTextOutside3  doneText3" y="759.5" x="561" font-size="11" id="task30-text">공연 별 평점, 북마크 수, 댓글 수 확인 - 다온  </text><text class="taskTextOutsideRight taskTextOutside3  doneText3 width-92.859375" y="1071.5" x="603" font-size="11" id="task43-text">설정 기능 1차 - 다영 </text><text class="taskTextOutsideLeft taskTextOutside3  doneText3" y="591.5" x="577" font-size="11" id="task23-text">메인 페이지 개발 (2차) - 민서 </text><text class="taskTextOutsideLeft taskTextOutside3  doneText3" y="783.5" x="577" font-size="11" id="task31-text">검색 기능 추가 및 디바운싱 적용 - 다온       </text><text class="taskTextOutsideLeft taskTextOutside3  doneText3" y="807.5" x="577" font-size="11" id="task32-text">검색 결과 페이지 기본 구조 생성 - 다온        </text><text class="taskTextOutsideLeft taskTextOutside3  doneText3" y="831.5" x="577" font-size="11" id="task33-text">검색어 상태 관리 (searchSlice) 구현 - 다온   </text><text class="taskTextOutsideLeft taskTextOutside3  doneText3" y="855.5" x="577" font-size="11" id="task34-text">공연 상세 페이지 이동 링크 설정 - 다온        </text><text class="taskTextOutsideLeft taskTextOutside3  doneText3" y="1095.5" x="577" font-size="11" id="task44-text">프로필 기능 2차 - 다영 </text><text class="taskTextOutsideLeft taskTextOutside3  doneText3" y="879.5" x="609" font-size="11" id="task35-text">성능 및 가독성 최적화 (ConcertList 컴포넌트) - 다온 </text><text class="taskTextOutsideLeft taskTextOutside3  doneText3" y="615.5" x="625" font-size="11" id="task24-text">후기작성 페이지 개발 - 민서 </text><text class="taskTextOutsideLeft taskTextOutside3  doneText3" y="903.5" x="625" font-size="11" id="task36-text">최근 검색어 리스트 스타일링 - 다온           </text><text class="taskTextOutsideLeft taskTextOutside3  doneText3" y="1119.5" x="625" font-size="11" id="task45-text">설정 기능 2차 - 다영 </text><text class="taskTextOutsideLeft taskTextOutside0  doneText0" y="1167.5" x="625" font-size="11" id="task47-text">Netlify 프록시 파일 설정 - 다온               </text><text class="taskTextOutsideLeft taskTextOutside3  doneText3" y="927.5" x="641" font-size="11" id="task37-text">검색 결과 없음 화면 추가 - 다온              </text><text class="taskTextOutsideLeft taskTextOutside0  doneText0" y="1143.5" x="641" font-size="11" id="task46-text">Proxy 테스트 및 설정 - 다온                  </text><text class="taskTextOutsideRight taskTextOutside0  doneText0 width-83.671875" y="1191.5" x="666" font-size="11" id="task48-text">배포 테스트 - 다온                           </text><text class="taskTextOutsideLeft taskTextOutside1  doneText1" y="1215.5" x="641" font-size="11" id="task49-text">보고서, README 초안 작성 - 다영 </text><text class="taskTextOutsideLeft taskTextOutside3  doneText3" y="951.5" x="656" font-size="11" id="task38-text">북마크순, 평점순, 리뷰순 정렬 기능 추가 - 다온 </text><text class="taskTextOutsideLeft taskTextOutside1 activeText1" y="1239.5" x="656" font-size="11" id="task50-text">보고서, README 완성 </text><text class="taskTextOutsideLeft taskTextOutside1  doneText1" y="1263.5" x="656" font-size="11" id="task51-text">커버이미지 디자인 - 재은 </text><text class="taskTextOutsideLeft taskTextOutside1  doneText1" y="1287.5" x="672" font-size="11" id="task52-text">결과보고서 디자인 - 다영 </text><text class="taskTextOutsideRight taskTextOutside1  width-20.25" y="1311.5" x="714" font-size="11" id="task53-text">발표 </text></g><g><text class="sectionTitle sectionTitle0" font-size="11" y="98" x="10" dy="0em"><tspan x="10" alignment-baseline="central">논의 및 사전조사</tspan></text><text class="sectionTitle sectionTitle1" font-size="11" y="218" x="10" dy="0em"><tspan x="10" alignment-baseline="central">기획</tspan></text><text class="sectionTitle sectionTitle2" font-size="11" y="374" x="10" dy="0em"><tspan x="10" alignment-baseline="central">초기 세팅 및 디자인</tspan></text><text class="sectionTitle sectionTitle3" font-size="11" y="794" x="10" dy="0em"><tspan x="10" alignment-baseline="central">개발</tspan></text><text class="sectionTitle sectionTitle0" font-size="11" y="1166" x="10" dy="0em"><tspan x="10" alignment-baseline="central">배포 및 설정</tspan></text><text class="sectionTitle sectionTitle1" font-size="11" y="1262" x="10" dy="0em"><tspan x="10" alignment-baseline="central">프로젝트 정리</tspan></text></g><g class="today"><line class="today" y2="1347" y1="25" x2="688" x1="688"/></g><text class="titleText" y="25" x="392">MUNA Project Timeline</text><style>svg span {
  font-family: 'Arial' !important;
}

svg {
  font-family: 'Arial' !important;
  -webkit-user-select: none;
  -moz-user-select: none;
  -ms-user-select: none;
  user-select: none;
}
</style></svg>